<?xml version="1.0" encoding="UTF-8" standalone="no"?>
<svg
   xmlns:dc="http://purl.org/dc/elements/1.1/"
   xmlns:cc="http://creativecommons.org/ns#"
   xmlns:rdf="http://www.w3.org/1999/02/22-rdf-syntax-ns#"
   xmlns:svg="http://www.w3.org/2000/svg"
   xmlns="http://www.w3.org/2000/svg"
   xmlns:sodipodi="http://sodipodi.sourceforge.net/DTD/sodipodi-0.dtd"
   xmlns:inkscape="http://www.inkscape.org/namespaces/inkscape"
   version="1.1"
   id="Layer_1"
   x="0px"
   y="0px"
   viewBox="0 0 122.88 103.38"
   style="enable-background:new 0 0 122.88 103.38"
   xml:space="preserve"
   sodipodi:docname="eraser-small.svg"
   inkscape:version="1.0.1 (3bc2e813f5, 2020-09-07)"><metadata
     id="metadata13"><rdf:RDF><cc:Work
         rdf:about=""><dc:format>image/svg+xml</dc:format><dc:type
           rdf:resource="http://purl.org/dc/dcmitype/StillImage" /><dc:title></dc:title></cc:Work></rdf:RDF></metadata><defs
     id="defs11" /><sodipodi:namedview
     pagecolor="#ffffff"
     bordercolor="#666666"
     borderopacity="1"
     objecttolerance="10"
     gridtolerance="10"
     guidetolerance="10"
     inkscape:pageopacity="0"
     inkscape:pageshadow="2"
     inkscape:window-width="1920"
     inkscape:window-height="1017"
     id="namedview9"
     showgrid="false"
     inkscape:snap-midpoints="true"
     inkscape:snap-bbox="true"
     inkscape:zoom="4.1110467"
     inkscape:cx="14.994953"
     inkscape:cy="57.412262"
     inkscape:window-x="-8"
     inkscape:window-y="-8"
     inkscape:window-maximized="1"
     inkscape:current-layer="g6" /><style
     type="text/css"
     id="style2">.st0{fill-rule:evenodd;clip-rule:evenodd;}</style><g
     id="g6"
     transform="matrix(0.74802141,0,0,0.74802141,13.072438,6.9573648)"><path
       id="path4"
       style="fill:#ac9d93;stroke-width:0.671984"
       d="m -9.3984831,-1.8824529 c -1.3352179,-0.00475 -2.4235879,1.08436743 -2.4283589,2.41958583 L -11.872462,35.202658 V 70.32087 c 0.210693,1.120491 1.197846,1.975669 2.3739679,1.975669 l 18.9443561,0.02809 18.944356,-0.02809 c 1.176123,0 2.163276,-0.855178 2.373968,-1.975669 V 35.202658 L 30.718566,0.53713293 c -0.0048,-1.3352183 -1.09314,-2.42433683 -2.428358,-2.41958583 l -18.8443469,0.02281 z m 6.7569435,41.8909449 12.0874016,0.01754 12.087401,-0.01754 c 1.330466,0 2.428359,1.087365 2.428359,2.417831 l 0.02456,21.68328 c 0.0048,1.335217 -1.089119,2.426604 -2.419582,2.426604 l -12.120738,0.01579 -12.1207388,-0.01579 c -1.3304664,0 -2.4243575,-1.091387 -2.4195866,-2.426604 l 0.024561,-21.68328 c 0,-1.330466 1.0978924,-2.417831 2.4283585,-2.417831 z" /><rect
       style="fill:none;stroke:#000000;stroke-width:1.93309975;stroke-miterlimit:4;stroke-dasharray:none"
       id="rect80"
       width="30.65826"
       height="29.357512"
       x="101.172"
       y="86.909081" /></g></svg>
