<?xml version="1.0" encoding="UTF-8" standalone="no"?>
<svg
   xmlns:dc="http://purl.org/dc/elements/1.1/"
   xmlns:cc="http://creativecommons.org/ns#"
   xmlns:rdf="http://www.w3.org/1999/02/22-rdf-syntax-ns#"
   xmlns:svg="http://www.w3.org/2000/svg"
   xmlns="http://www.w3.org/2000/svg"
   xmlns:sodipodi="http://sodipodi.sourceforge.net/DTD/sodipodi-0.dtd"
   xmlns:inkscape="http://www.inkscape.org/namespaces/inkscape"
   version="1.1"
   id="Layer_1"
   x="0px"
   y="0px"
   viewBox="0 0 122.88 107.95"
   style="enable-background:new 0 0 122.88 107.95"
   xml:space="preserve"
   sodipodi:docname="pen-color-blue.svg"
   inkscape:version="1.0.1 (3bc2e813f5, 2020-09-07)"><metadata
     id="metadata13"><rdf:RDF><cc:Work
         rdf:about=""><dc:format>image/svg+xml</dc:format><dc:type
           rdf:resource="http://purl.org/dc/dcmitype/StillImage" /><dc:title></dc:title></cc:Work></rdf:RDF></metadata><defs
     id="defs11" /><sodipodi:namedview
     pagecolor="#ffffff"
     bordercolor="#666666"
     borderopacity="1"
     objecttolerance="10"
     gridtolerance="10"
     guidetolerance="10"
     inkscape:pageopacity="0"
     inkscape:pageshadow="2"
     inkscape:window-width="1920"
     inkscape:window-height="1017"
     id="namedview9"
     showgrid="false"
     inkscape:zoom="5.5677701"
     inkscape:cx="67.530595"
     inkscape:cy="57.815172"
     inkscape:window-x="-8"
     inkscape:window-y="-8"
     inkscape:window-maximized="1"
     inkscape:current-layer="Layer_1" /><style
     type="text/css"
     id="style2"><![CDATA[
	.st0{fill-rule:evenodd;clip-rule:evenodd;}
]]></style><g
     id="g6"
     style="fill:#0000ff"><path
       class="st0"
       d="m 82.19,0 c 1.22,-0.01 2.27,0.4 3.18,1.27 l 13.27,12.7 c 0.86,0.82 1.28,1.91 1.3,3.11 0.02,1.22 -0.34,2.33 -1.18,3.18 L 91.7,27.61 72.09,8.67 79.08,1.39 C 79.94,0.5 80.98,0.02 82.19,0 Z M 20.08,68.29 c 2.4,-0.74 4.93,0.61 5.67,3 0.74,2.4 -0.61,4.93 -3,5.67 -6.98,2.14 -11.66,6.28 -13.21,10.17 -0.41,1.04 -0.55,1.99 -0.39,2.77 0.12,0.59 0.48,1.13 1.07,1.56 2.55,1.86 8.04,2.34 17.26,0.1 5.46,-1.33 11.31,-3.13 16.49,-4.73 5.29,-1.63 9.91,-3.06 13.12,-3.66 5.92,-1.1 11.83,-1.85 16.6,-1.61 6.26,0.31 10.96,2.32 12.57,7.13 1.04,3.11 0.75,5.81 0.49,8.23 -0.09,0.87 -0.18,1.68 -0.14,2.21 0,0.02 0.95,-0.05 5.53,-0.41 5.3,-0.42 10.79,-2.51 16.21,-4.58 2.78,-1.06 5.54,-2.11 8.67,-3.07 2.4,-0.73 4.93,0.63 5.65,3.02 0.73,2.4 -0.63,4.93 -3.02,5.65 -2.43,0.74 -5.24,1.82 -8.06,2.89 -6.04,2.3 -12.14,4.63 -18.74,5.15 -12.07,0.95 -14.87,-2.46 -15.3,-7.95 -0.1,-1.29 0.03,-2.54 0.17,-3.88 0.16,-1.5 0.34,-3.18 -0.07,-4.39 -0.18,-0.54 -1.89,-0.82 -4.39,-0.94 -3.99,-0.2 -9.22,0.48 -14.54,1.47 -2.65,0.49 -7.05,1.85 -12.09,3.41 -5.27,1.63 -11.22,3.46 -17.02,4.87 -12.14,2.95 -20.21,1.7 -24.73,-1.6 -2.54,-1.85 -4.05,-4.27 -4.63,-7 -0.54,-2.54 -0.23,-5.28 0.85,-8 2.46,-6.14 9.23,-12.5 18.98,-15.48 z M 41.27,48.45 53.3,60.02 38.59,63.97 c -0.53,0.1 -0.74,-0.11 -0.65,-0.6 L 41.27,48.45 Z M 65.87,15.11 85.46,33.98 58.7,62.23 34.72,68.66 c -0.86,0.17 -1.2,-0.17 -1.06,-0.98 L 39.09,43.37 65.87,15.11 Z"
       id="path4"
       style="fill:#0000ff" /></g></svg>
