<?xml version="1.0" encoding="UTF-8" standalone="no"?>
<svg
   xmlns:dc="http://purl.org/dc/elements/1.1/"
   xmlns:cc="http://creativecommons.org/ns#"
   xmlns:rdf="http://www.w3.org/1999/02/22-rdf-syntax-ns#"
   xmlns:svg="http://www.w3.org/2000/svg"
   xmlns="http://www.w3.org/2000/svg"
   xmlns:sodipodi="http://sodipodi.sourceforge.net/DTD/sodipodi-0.dtd"
   xmlns:inkscape="http://www.inkscape.org/namespaces/inkscape"
   version="1.1"
   id="Layer_1"
   x="0px"
   y="0px"
   width="121.702px"
   height="122.879px"
   viewBox="0 0 121.702 122.879"
   enable-background="new 0 0 121.702 122.879"
   xml:space="preserve"
   sodipodi:docname="zoom-to-width.svg"
   inkscape:version="1.0.1 (3bc2e813f5, 2020-09-07)"><metadata
     id="metadata11"><rdf:RDF><cc:Work
         rdf:about=""><dc:format>image/svg+xml</dc:format><dc:type
           rdf:resource="http://purl.org/dc/dcmitype/StillImage" /><dc:title></dc:title></cc:Work></rdf:RDF></metadata><defs
     id="defs9" /><sodipodi:namedview
     pagecolor="#ffffff"
     bordercolor="#666666"
     borderopacity="1"
     objecttolerance="10"
     gridtolerance="10"
     guidetolerance="10"
     inkscape:pageopacity="0"
     inkscape:pageshadow="2"
     inkscape:window-width="1920"
     inkscape:window-height="1017"
     id="namedview7"
     showgrid="false"
     inkscape:zoom="3.4586871"
     inkscape:cx="38.973846"
     inkscape:cy="69.020385"
     inkscape:window-x="1912"
     inkscape:window-y="-8"
     inkscape:window-maximized="1"
     inkscape:current-layer="g4" /><g
     id="g4"><path
       d="m 98.496,82.963 23.206,25.291 -16.001,14.625 -22.379,-24.621 c -8.503,5.67 -18.718,8.977 -29.705,8.977 -14.806,0 -28.21,-6.002 -37.913,-15.705 C 6.001,81.827 0,68.422 0,53.617 0,38.811 6.002,25.407 15.705,15.704 25.407,6.001 38.812,0 53.617,0 c 14.805,0 28.21,6.001 37.913,15.704 9.702,9.703 15.704,23.107 15.704,37.913 0,10.832 -3.213,20.914 -8.738,29.346 z M 87.3,19.934 C 78.68,11.314 66.772,5.983 53.617,5.983 c -13.154,0 -25.063,5.332 -33.683,13.951 -8.62,8.62 -13.951,20.529 -13.951,33.683 0,13.155 5.332,25.063 13.951,33.682 8.62,8.621 20.528,13.951 33.683,13.951 13.155,0 25.063,-5.33 33.683,-13.951 8.62,-8.619 13.952,-20.527 13.952,-33.682 0,-13.154 -5.332,-25.063 -13.952,-33.683 z"
       id="path2"
       sodipodi:nodetypes="ccccssscscscsscscscss" /><path
       id="path2-3"
       d="m 34.148892,38.922094 c -0.796041,-0.06772 -1.61172,0.253178 -2.148613,0.933246 l -8.996342,11.299269 c -0.119864,0.141928 -0.220531,0.29848 -0.30044,0.460683 l -0.0066,0.0067 -0.0066,0.0132 -0.01951,0.04751 -0.0066,0.0067 -0.02081,0.04752 -0.0066,0.0067 v 0.0067 c -0.119864,0.277097 -0.185519,0.573834 -0.205497,0.871205 v 0.06204 0.06072 0.06071 0.06071 0.06071 c 0.01331,0.297371 0.08563,0.594109 0.205497,0.871206 v 0.01451 l 0.0066,0.0067 0.02081,0.04752 0.0066,0.0067 0.01951,0.04752 0.0066,0.0132 0.0066,0.0067 c 0.07991,0.162202 0.180577,0.317436 0.30044,0.459363 l 8.996342,11.300324 c 0.859029,1.088109 2.423927,1.257281 3.496049,0.385443 1.072121,-0.871839 1.238807,-2.460073 0.379779,-3.548182 l -5.747411,-7.219125 47.260378,-0.0132 -5.760416,7.232325 c -0.859025,1.08135 -0.692339,2.676344 0.379784,3.548182 1.065463,0.871839 2.63702,0.702667 3.496049,-0.385443 l 9.00284,-11.30719 c 0.119865,-0.141928 0.220531,-0.29716 0.300441,-0.459363 l 0.0066,-0.0067 0.0066,-0.01451 0.01951,-0.0462 0.0066,-0.0079 0.02078,-0.0462 0.0066,-0.0079 v -0.0067 c 0.119864,-0.277096 0.185517,-0.573834 0.205494,-0.871205 v -0.06071 -0.06071 -0.06071 -0.06071 -0.06205 c -0.01332,-0.297371 -0.08563,-0.594109 -0.205494,-0.871205 v -0.0067 l -0.0066,-0.0067 -0.02078,-0.04752 -0.0066,-0.0067 -0.01951,-0.04752 -0.0066,-0.0132 -0.0066,-0.0067 c -0.07991,-0.162267 -0.180576,-0.31882 -0.300441,-0.460747 l -9.00284,-11.29907 c -0.859029,-1.08811 -2.423927,-1.257282 -3.496049,-0.385442 -1.072123,0.871838 -1.238809,2.460073 -0.379784,3.548181 l 5.753917,7.237604 -47.27989,0.01451 5.773422,-7.252124 c 0.859028,-1.081347 0.692342,-2.67634 -0.379779,-3.548179 -0.399549,-0.326939 -0.869811,-0.507173 -1.347436,-0.547803 z"
       style="stroke-width:0.67086" /><path
       id="path2-0"
       d="m 15.335774,40.490996 c -1.378442,0 -2.497177,1.135418 -2.497177,2.534416 v 19.50444 c 0,1.398997 1.118735,2.527657 2.497177,2.534415 1.378442,0 2.497177,-1.135418 2.497177,-2.534415 v -19.50444 c 0,-1.398998 -1.118735,-2.534416 -2.497177,-2.534416 z m 76.84022,0 c -1.378433,0 -2.497175,1.135418 -2.497175,2.534416 v 19.50444 c 0,1.398997 1.118742,2.534415 2.497175,2.534415 1.378441,0 2.497177,-1.135418 2.497177,-2.534415 v -19.50444 c 0,-1.398998 -1.118736,-2.534416 -2.497177,-2.534416 z"
       style="stroke-width:0.67086" /></g></svg>
